<mxfile host="Electron" agent="Mozilla/5.0 (Windows NT 10.0; Win64; x64) AppleWebKit/537.36 (KHTML, like Gecko) draw.io/26.0.16 Chrome/132.0.6834.196 Electron/34.2.0 Safari/537.36" version="26.0.16">
  <diagram name="Page-1" id="BrZhJtcd2cOjyItKTcB5">
    <mxGraphModel dx="1114" dy="1506" grid="1" gridSize="10" guides="1" tooltips="1" connect="1" arrows="1" fold="1" page="1" pageScale="1" pageWidth="1100" pageHeight="850" math="0" shadow="0">
      <root>
        <mxCell id="0" />
        <mxCell id="1" parent="0" />
        <mxCell id="-bjYizPjiFon_12t4C---2" value="Game" style="shape=umlFrame;whiteSpace=wrap;html=1;pointerEvents=0;" parent="1" vertex="1">
          <mxGeometry x="410" y="280" width="610" height="360" as="geometry" />
        </mxCell>
        <mxCell id="-bjYizPjiFon_12t4C---14" style="edgeStyle=orthogonalEdgeStyle;rounded=0;orthogonalLoop=1;jettySize=auto;html=1;exitX=0.5;exitY=0.5;exitDx=0;exitDy=0;exitPerimeter=0;entryX=0;entryY=0.5;entryDx=0;entryDy=0;" parent="1" source="-bjYizPjiFon_12t4C---3" target="-bjYizPjiFon_12t4C---4" edge="1">
          <mxGeometry relative="1" as="geometry" />
        </mxCell>
        <mxCell id="-bjYizPjiFon_12t4C---15" style="edgeStyle=orthogonalEdgeStyle;rounded=0;orthogonalLoop=1;jettySize=auto;html=1;exitX=0.5;exitY=0.5;exitDx=0;exitDy=0;exitPerimeter=0;entryX=0;entryY=0.5;entryDx=0;entryDy=0;" parent="1" source="-bjYizPjiFon_12t4C---3" target="-bjYizPjiFon_12t4C---11" edge="1">
          <mxGeometry relative="1" as="geometry" />
        </mxCell>
        <mxCell id="-bjYizPjiFon_12t4C---18" style="edgeStyle=orthogonalEdgeStyle;rounded=0;orthogonalLoop=1;jettySize=auto;html=1;exitX=0.5;exitY=0.5;exitDx=0;exitDy=0;exitPerimeter=0;entryX=0;entryY=0.5;entryDx=0;entryDy=0;" parent="1" source="-bjYizPjiFon_12t4C---3" target="-bjYizPjiFon_12t4C---17" edge="1">
          <mxGeometry relative="1" as="geometry" />
        </mxCell>
        <mxCell id="-bjYizPjiFon_12t4C---3" value="Player" style="shape=umlActor;verticalLabelPosition=bottom;verticalAlign=top;html=1;" parent="1" vertex="1">
          <mxGeometry x="270" y="450" width="30" height="60" as="geometry" />
        </mxCell>
        <mxCell id="-bjYizPjiFon_12t4C---22" style="edgeStyle=orthogonalEdgeStyle;rounded=0;orthogonalLoop=1;jettySize=auto;html=1;exitX=0;exitY=0.5;exitDx=0;exitDy=0;entryX=1;entryY=0.5;entryDx=0;entryDy=0;" parent="1" source="-bjYizPjiFon_12t4C---6" target="-bjYizPjiFon_12t4C---4" edge="1">
          <mxGeometry relative="1" as="geometry" />
        </mxCell>
        <mxCell id="-bjYizPjiFon_12t4C---23" value="&amp;lt;&amp;lt;extends&amp;gt;&amp;gt;" style="edgeLabel;html=1;align=center;verticalAlign=middle;resizable=0;points=[];" parent="-bjYizPjiFon_12t4C---22" vertex="1" connectable="0">
          <mxGeometry x="-0.3618" y="-2" relative="1" as="geometry">
            <mxPoint x="-60" y="2" as="offset" />
          </mxGeometry>
        </mxCell>
        <mxCell id="-bjYizPjiFon_12t4C---4" value="Make Input" style="ellipse;whiteSpace=wrap;html=1;" parent="1" vertex="1">
          <mxGeometry x="440" y="320" width="90" height="40" as="geometry" />
        </mxCell>
        <mxCell id="-bjYizPjiFon_12t4C---12" style="rounded=0;orthogonalLoop=1;jettySize=auto;html=1;" parent="1" source="-bjYizPjiFon_12t4C---5" target="-bjYizPjiFon_12t4C---11" edge="1">
          <mxGeometry relative="1" as="geometry" />
        </mxCell>
        <mxCell id="-bjYizPjiFon_12t4C---13" value="&amp;lt;&amp;lt;includes&amp;gt;&amp;gt;" style="edgeLabel;html=1;align=center;verticalAlign=middle;resizable=0;points=[];" parent="-bjYizPjiFon_12t4C---12" vertex="1" connectable="0">
          <mxGeometry x="-0.8064" relative="1" as="geometry">
            <mxPoint x="-57" y="17" as="offset" />
          </mxGeometry>
        </mxCell>
        <mxCell id="-bjYizPjiFon_12t4C---5" value="Validate Input" style="ellipse;whiteSpace=wrap;html=1;" parent="1" vertex="1">
          <mxGeometry x="660" y="385" width="110" height="40" as="geometry" />
        </mxCell>
        <mxCell id="-bjYizPjiFon_12t4C---8" style="rounded=0;orthogonalLoop=1;jettySize=auto;html=1;" parent="1" source="-bjYizPjiFon_12t4C---6" target="-bjYizPjiFon_12t4C---5" edge="1">
          <mxGeometry relative="1" as="geometry" />
        </mxCell>
        <mxCell id="-bjYizPjiFon_12t4C---10" value="&amp;lt;&amp;lt;includes&amp;gt;&amp;gt;" style="edgeLabel;html=1;align=center;verticalAlign=middle;resizable=0;points=[];" parent="-bjYizPjiFon_12t4C---8" vertex="1" connectable="0">
          <mxGeometry x="0.3639" y="-1" relative="1" as="geometry">
            <mxPoint x="24" y="-9" as="offset" />
          </mxGeometry>
        </mxCell>
        <mxCell id="-bjYizPjiFon_12t4C---20" style="edgeStyle=orthogonalEdgeStyle;rounded=0;orthogonalLoop=1;jettySize=auto;html=1;exitX=0.5;exitY=1;exitDx=0;exitDy=0;entryX=0.5;entryY=0;entryDx=0;entryDy=0;" parent="1" source="-bjYizPjiFon_12t4C---6" target="-bjYizPjiFon_12t4C---19" edge="1">
          <mxGeometry relative="1" as="geometry" />
        </mxCell>
        <mxCell id="-bjYizPjiFon_12t4C---25" value="&amp;lt;&amp;lt;includes&amp;gt;&amp;gt;" style="edgeLabel;html=1;align=center;verticalAlign=middle;resizable=0;points=[];" parent="-bjYizPjiFon_12t4C---20" vertex="1" connectable="0">
          <mxGeometry x="-0.3191" relative="1" as="geometry">
            <mxPoint y="35" as="offset" />
          </mxGeometry>
        </mxCell>
        <mxCell id="-bjYizPjiFon_12t4C---6" value="Handle Input" style="ellipse;whiteSpace=wrap;html=1;" parent="1" vertex="1">
          <mxGeometry x="890" y="320" width="100" height="40" as="geometry" />
        </mxCell>
        <mxCell id="-bjYizPjiFon_12t4C---11" value="Query Game State" style="ellipse;whiteSpace=wrap;html=1;" parent="1" vertex="1">
          <mxGeometry x="440" y="460" width="120" height="40" as="geometry" />
        </mxCell>
        <mxCell id="-bjYizPjiFon_12t4C---21" style="edgeStyle=orthogonalEdgeStyle;rounded=0;orthogonalLoop=1;jettySize=auto;html=1;exitX=1;exitY=0.5;exitDx=0;exitDy=0;entryX=0;entryY=0.5;entryDx=0;entryDy=0;" parent="1" source="-bjYizPjiFon_12t4C---17" target="-bjYizPjiFon_12t4C---19" edge="1">
          <mxGeometry relative="1" as="geometry" />
        </mxCell>
        <mxCell id="-bjYizPjiFon_12t4C---24" value="&amp;lt;&amp;lt;includes&amp;gt;&amp;gt;" style="edgeLabel;html=1;align=center;verticalAlign=middle;resizable=0;points=[];" parent="-bjYizPjiFon_12t4C---21" vertex="1" connectable="0">
          <mxGeometry x="-0.09" y="1" relative="1" as="geometry">
            <mxPoint x="6" y="1" as="offset" />
          </mxGeometry>
        </mxCell>
        <mxCell id="-bjYizPjiFon_12t4C---17" value="Quit Game" style="ellipse;whiteSpace=wrap;html=1;" parent="1" vertex="1">
          <mxGeometry x="440" y="580" width="90" height="40" as="geometry" />
        </mxCell>
        <mxCell id="-bjYizPjiFon_12t4C---19" value="Update Game State" style="ellipse;whiteSpace=wrap;html=1;" parent="1" vertex="1">
          <mxGeometry x="880" y="580" width="120" height="40" as="geometry" />
        </mxCell>
        <mxCell id="-bjYizPjiFon_12t4C---27" style="rounded=0;orthogonalLoop=1;jettySize=auto;html=1;" parent="1" source="-bjYizPjiFon_12t4C---26" target="-bjYizPjiFon_12t4C---11" edge="1">
          <mxGeometry relative="1" as="geometry" />
        </mxCell>
        <mxCell id="-bjYizPjiFon_12t4C---28" value="&amp;lt;&amp;lt;extends&amp;gt;&amp;gt;" style="edgeLabel;html=1;align=center;verticalAlign=middle;resizable=0;points=[];" parent="-bjYizPjiFon_12t4C---27" vertex="1" connectable="0">
          <mxGeometry x="-0.1069" relative="1" as="geometry">
            <mxPoint as="offset" />
          </mxGeometry>
        </mxCell>
        <mxCell id="-bjYizPjiFon_12t4C---26" value="Query Hints" style="ellipse;whiteSpace=wrap;html=1;" parent="1" vertex="1">
          <mxGeometry x="660" y="530" width="90" height="40" as="geometry" />
        </mxCell>
        <mxCell id="68WKUITMJPa9DK84UkEh-3" value="Checkers" style="shape=umlFrame;whiteSpace=wrap;html=1;pointerEvents=0;width=70;height=30;" vertex="1" parent="1">
          <mxGeometry x="1140" y="-330" width="960" height="810" as="geometry" />
        </mxCell>
        <mxCell id="68WKUITMJPa9DK84UkEh-5" value="Update Game State" style="ellipse;whiteSpace=wrap;html=1;" vertex="1" parent="1">
          <mxGeometry x="1160" y="20" width="120" height="40" as="geometry" />
        </mxCell>
        <mxCell id="68WKUITMJPa9DK84UkEh-9" value="" style="rounded=0;orthogonalLoop=1;jettySize=auto;html=1;endArrow=block;endFill=1;" edge="1" parent="1" source="68WKUITMJPa9DK84UkEh-5" target="68WKUITMJPa9DK84UkEh-6">
          <mxGeometry relative="1" as="geometry" />
        </mxCell>
        <mxCell id="68WKUITMJPa9DK84UkEh-22" value="&amp;lt;&amp;lt;includes&amp;gt;&amp;gt;" style="edgeLabel;html=1;align=center;verticalAlign=middle;resizable=0;points=[];" vertex="1" connectable="0" parent="68WKUITMJPa9DK84UkEh-9">
          <mxGeometry x="-0.0068" relative="1" as="geometry">
            <mxPoint as="offset" />
          </mxGeometry>
        </mxCell>
        <mxCell id="68WKUITMJPa9DK84UkEh-6" value="Update Turn Status" style="ellipse;whiteSpace=wrap;html=1;" vertex="1" parent="1">
          <mxGeometry x="1380" y="-60" width="140" height="40" as="geometry" />
        </mxCell>
        <mxCell id="68WKUITMJPa9DK84UkEh-13" value="" style="rounded=0;orthogonalLoop=1;jettySize=auto;html=1;endArrow=block;endFill=1;" edge="1" parent="1" source="68WKUITMJPa9DK84UkEh-5" target="68WKUITMJPa9DK84UkEh-7">
          <mxGeometry relative="1" as="geometry" />
        </mxCell>
        <mxCell id="68WKUITMJPa9DK84UkEh-23" value="&amp;lt;&amp;lt;includes&amp;gt;&amp;gt;" style="edgeLabel;html=1;align=center;verticalAlign=middle;resizable=0;points=[];" vertex="1" connectable="0" parent="68WKUITMJPa9DK84UkEh-13">
          <mxGeometry x="0.0385" y="-1" relative="1" as="geometry">
            <mxPoint x="-7" y="-5" as="offset" />
          </mxGeometry>
        </mxCell>
        <mxCell id="68WKUITMJPa9DK84UkEh-7" value="Update Piece and Tile status" style="ellipse;whiteSpace=wrap;html=1;" vertex="1" parent="1">
          <mxGeometry x="1380" y="100" width="200" height="40" as="geometry" />
        </mxCell>
        <mxCell id="68WKUITMJPa9DK84UkEh-12" value="" style="edgeStyle=orthogonalEdgeStyle;rounded=0;orthogonalLoop=1;jettySize=auto;html=1;endArrow=block;endFill=1;" edge="1" parent="1" source="68WKUITMJPa9DK84UkEh-6" target="68WKUITMJPa9DK84UkEh-11">
          <mxGeometry relative="1" as="geometry" />
        </mxCell>
        <mxCell id="68WKUITMJPa9DK84UkEh-24" value="&amp;lt;&amp;lt;includes&amp;gt;&amp;gt;" style="edgeLabel;html=1;align=center;verticalAlign=middle;resizable=0;points=[];" vertex="1" connectable="0" parent="68WKUITMJPa9DK84UkEh-12">
          <mxGeometry x="-0.2333" relative="1" as="geometry">
            <mxPoint x="11" as="offset" />
          </mxGeometry>
        </mxCell>
        <mxCell id="68WKUITMJPa9DK84UkEh-11" value="Determine if the Turn should End" style="ellipse;whiteSpace=wrap;html=1;" vertex="1" parent="1">
          <mxGeometry x="1640" y="-60" width="210" height="40" as="geometry" />
        </mxCell>
        <mxCell id="68WKUITMJPa9DK84UkEh-15" value="" style="rounded=0;orthogonalLoop=1;jettySize=auto;html=1;endArrow=block;endFill=1;" edge="1" parent="1" source="68WKUITMJPa9DK84UkEh-11" target="68WKUITMJPa9DK84UkEh-14">
          <mxGeometry relative="1" as="geometry" />
        </mxCell>
        <mxCell id="68WKUITMJPa9DK84UkEh-27" value="&amp;lt;&amp;lt;includes&amp;gt;&amp;gt;" style="edgeLabel;html=1;align=center;verticalAlign=middle;resizable=0;points=[];" vertex="1" connectable="0" parent="68WKUITMJPa9DK84UkEh-15">
          <mxGeometry x="-0.165" relative="1" as="geometry">
            <mxPoint as="offset" />
          </mxGeometry>
        </mxCell>
        <mxCell id="68WKUITMJPa9DK84UkEh-14" value="End the Turn if the current Player Kings a Piece" style="ellipse;whiteSpace=wrap;html=1;" vertex="1" parent="1">
          <mxGeometry x="1370" y="-180" width="290" height="40" as="geometry" />
        </mxCell>
        <mxCell id="68WKUITMJPa9DK84UkEh-17" value="" style="rounded=0;orthogonalLoop=1;jettySize=auto;html=1;endArrow=block;endFill=1;" edge="1" parent="1" source="68WKUITMJPa9DK84UkEh-11" target="68WKUITMJPa9DK84UkEh-16">
          <mxGeometry relative="1" as="geometry" />
        </mxCell>
        <mxCell id="68WKUITMJPa9DK84UkEh-28" value="&amp;lt;&amp;lt;includes&amp;gt;&amp;gt;" style="edgeLabel;html=1;align=center;verticalAlign=middle;resizable=0;points=[];" vertex="1" connectable="0" parent="68WKUITMJPa9DK84UkEh-17">
          <mxGeometry x="-0.0923" y="-1" relative="1" as="geometry">
            <mxPoint as="offset" />
          </mxGeometry>
        </mxCell>
        <mxCell id="68WKUITMJPa9DK84UkEh-16" value="Continue the Turn if the current Player can take more Pieces" style="ellipse;whiteSpace=wrap;html=1;" vertex="1" parent="1">
          <mxGeometry x="1720" y="-180" width="360" height="40" as="geometry" />
        </mxCell>
        <mxCell id="68WKUITMJPa9DK84UkEh-19" value="" style="edgeStyle=orthogonalEdgeStyle;rounded=0;orthogonalLoop=1;jettySize=auto;html=1;" edge="1" parent="1" source="68WKUITMJPa9DK84UkEh-16" target="68WKUITMJPa9DK84UkEh-18">
          <mxGeometry relative="1" as="geometry" />
        </mxCell>
        <mxCell id="68WKUITMJPa9DK84UkEh-20" value="&amp;lt;&amp;lt;includes&amp;gt;&amp;gt;" style="edgeLabel;html=1;align=center;verticalAlign=middle;resizable=0;points=[];" vertex="1" connectable="0" parent="68WKUITMJPa9DK84UkEh-19">
          <mxGeometry x="-0.1273" y="1" relative="1" as="geometry">
            <mxPoint as="offset" />
          </mxGeometry>
        </mxCell>
        <mxCell id="68WKUITMJPa9DK84UkEh-18" value="Check if the current Player has made a move" style="ellipse;whiteSpace=wrap;html=1;" vertex="1" parent="1">
          <mxGeometry x="1760" y="-280" width="280" height="40" as="geometry" />
        </mxCell>
        <mxCell id="68WKUITMJPa9DK84UkEh-30" value="" style="rounded=0;orthogonalLoop=1;jettySize=auto;html=1;" edge="1" parent="1" source="68WKUITMJPa9DK84UkEh-21" target="68WKUITMJPa9DK84UkEh-29">
          <mxGeometry relative="1" as="geometry" />
        </mxCell>
        <mxCell id="68WKUITMJPa9DK84UkEh-31" value="&amp;lt;&amp;lt;includes&amp;gt;&amp;gt;" style="edgeLabel;html=1;align=center;verticalAlign=middle;resizable=0;points=[];" vertex="1" connectable="0" parent="68WKUITMJPa9DK84UkEh-30">
          <mxGeometry x="-0.0721" y="-1" relative="1" as="geometry">
            <mxPoint x="-5" as="offset" />
          </mxGeometry>
        </mxCell>
        <mxCell id="68WKUITMJPa9DK84UkEh-33" value="" style="rounded=0;orthogonalLoop=1;jettySize=auto;html=1;" edge="1" parent="1" source="68WKUITMJPa9DK84UkEh-21" target="68WKUITMJPa9DK84UkEh-32">
          <mxGeometry relative="1" as="geometry" />
        </mxCell>
        <mxCell id="68WKUITMJPa9DK84UkEh-34" value="&amp;lt;&amp;lt;includes&amp;gt;&amp;gt;" style="edgeLabel;html=1;align=center;verticalAlign=middle;resizable=0;points=[];" vertex="1" connectable="0" parent="68WKUITMJPa9DK84UkEh-33">
          <mxGeometry x="-0.1957" y="1" relative="1" as="geometry">
            <mxPoint x="15" as="offset" />
          </mxGeometry>
        </mxCell>
        <mxCell id="68WKUITMJPa9DK84UkEh-21" value="Validate Input" style="ellipse;whiteSpace=wrap;html=1;" vertex="1" parent="1">
          <mxGeometry x="1190" y="320" width="110" height="40" as="geometry" />
        </mxCell>
        <mxCell id="68WKUITMJPa9DK84UkEh-25" value="" style="curved=1;endArrow=classic;html=1;rounded=0;" edge="1" parent="1" source="68WKUITMJPa9DK84UkEh-14" target="68WKUITMJPa9DK84UkEh-16">
          <mxGeometry width="50" height="50" relative="1" as="geometry">
            <mxPoint x="1630" y="-100" as="sourcePoint" />
            <mxPoint x="1680" y="-150" as="targetPoint" />
            <Array as="points">
              <mxPoint x="1700" y="-210" />
            </Array>
          </mxGeometry>
        </mxCell>
        <mxCell id="68WKUITMJPa9DK84UkEh-26" value="Priority Over" style="edgeLabel;html=1;align=center;verticalAlign=middle;resizable=0;points=[];" vertex="1" connectable="0" parent="68WKUITMJPa9DK84UkEh-25">
          <mxGeometry x="-0.1589" y="-9" relative="1" as="geometry">
            <mxPoint x="17" y="3" as="offset" />
          </mxGeometry>
        </mxCell>
        <mxCell id="68WKUITMJPa9DK84UkEh-29" value="Prevent the Non-Current Player Pieces from being Moved" style="ellipse;whiteSpace=wrap;html=1;" vertex="1" parent="1">
          <mxGeometry x="1410" y="230" width="340" height="50" as="geometry" />
        </mxCell>
        <mxCell id="68WKUITMJPa9DK84UkEh-32" value="Force the current Player to take Pieces when they can" style="ellipse;whiteSpace=wrap;html=1;" vertex="1" parent="1">
          <mxGeometry x="1410" y="380" width="320" height="50" as="geometry" />
        </mxCell>
      </root>
    </mxGraphModel>
  </diagram>
</mxfile>
